<svg width="162" height="66" viewBox="0 0 162 66" fill="none" xmlns="http://www.w3.org/2000/svg">
<path d="M12.2142 21H0L6.46632 25.1258L6.37651 51.9915L6.82556 53.5267L7.72366 55.2537L8.89119 56.597L24.2487 66V61.7783V61.0107L24.1589 60.435L23.7997 59.7633L21.8238 57.0768L12.2142 51.2239V21Z" fill="url(#paint0_linear_3902_3)"/>
<path d="M43.1088 56.4051L27.4819 66V24.9339L27.5717 23.7825L27.8411 22.823L28.2003 22.1514L29.0086 21.3838L29.9067 21H52L45.6235 25.4136V32.7058L39.696 36.2559V27.3326H33.6788V54.9659L39.6062 51.1279V43.8358L45.5337 40.2857V46.7143V52.3753L45.1744 53.5267L44.8152 54.3902L44.0069 55.4456L43.1088 56.4051Z" fill="url(#paint1_linear_3902_3)"/>
<path d="M24.4283 21H15.1779L18.5009 23.2068V47.29L24.4283 51.2239V21Z" fill="url(#paint2_linear_3902_3)"/>
<path d="M9 17V14.8989H16.4049L12.2331 4.58427C18.3395 6.31142 22.2269 7.15677 18.2822 11.5562C21.4285 14.0116 22.8559 13.745 24.7485 10.1236C20.1486 8.72814 22.2152 5.61054 26 0C29.8487 5.42461 31.8764 8.41269 27.3558 10.4101C29.0684 13.5738 30.3614 14.1808 33.7178 11.5562C32.9188 11.0964 32.0491 10.3146 31.8405 8.59551C31.6319 6.8764 36.3382 5.21795 39.7669 4.58427L35.5951 14.8989H43V17H9Z" fill="white"/>
<path d="M25 52L18.3333 47.4792V23.5833L15 21H25V52Z" fill="white"/>
<path d="M72.756 33.74L69.144 36.308H64.032V31.64L66.84 29.6H57L59.832 31.64V35.96L57 38H72.756V33.74ZM89.5653 33.944L86.1933 36.344H80.4573V34.604H83.5413L85.8213 35.636V32.096L83.4813 32.876H80.4453V31.28H86.1453L89.2773 33.404V29.6H73.4133L76.2453 31.64V35.96L73.4133 38H89.5653V33.944ZM97.8271 38L95.4511 36.344L95.8111 35.756H100.203L100.623 36.296L97.9471 38H108.159L105.039 35.96L101.703 31.304L103.779 29.6H93.9271L95.8831 31.292L92.7751 35.96L90.2311 38H97.8271ZM96.6631 34.364L97.8631 32.42L99.2191 34.364H96.6631ZM126.032 33.872C126.032 31.184 122.348 29.6 119.624 29.6H108.596L111.416 31.64V35.96L108.584 38H119.48C122.084 38 126.032 36.968 126.032 33.872ZM121.16 33.812C121.16 35.36 120.26 36.2 118.88 36.2H115.616V31.28H118.496C120.104 31.28 121.16 32.372 121.16 33.812ZM142.133 33.944L138.761 36.344H133.025V34.604H136.109L138.389 35.636V32.096L136.049 32.876H133.013V31.28H138.713L141.845 33.404V29.6H125.981L128.813 31.64V35.96L125.981 38H142.133V33.944ZM158.951 36.716C158.255 35.432 157.499 34.436 156.179 34.136C157.223 33.956 159.443 33.38 159.443 32.048C159.443 30.02 155.819 29.6 154.091 29.6H143.039L145.871 31.64V35.96L143.039 38H153.191L150.071 35.96V34.712H152.615C153.323 34.712 153.827 34.892 154.007 35.288C154.247 35.804 154.343 36.368 154.595 36.872C154.883 37.46 155.183 37.808 155.363 38H160.955L158.951 36.716ZM154.919 32.156C154.919 32.792 154.523 33.116 153.743 33.116H150.083V31.28H153.539C154.103 31.28 154.919 31.508 154.919 32.156ZM72.288 49.012C72.288 48.52 71.928 48.064 71.676 48.064C71.64 48.064 71.652 48.28 71.472 48.7C71.244 49.192 70.788 49.6 70.104 49.9C69.108 50.32 67.668 50.536 65.784 50.536C64.152 50.536 62.328 49.732 62.328 47.8C62.328 45.736 64.224 44.992 66.084 44.992C67.98 44.992 70.704 45.712 71.784 47.5V43.6L70.212 44.512C68.496 43.744 66.912 43.36 65.46 43.36C63.348 43.36 61.488 43.792 59.868 44.668C58.2 45.568 57.36 46.66 57.36 47.92C57.36 51.532 62.568 52.36 65.784 52.36C67.8 52.36 69.408 52.036 70.608 51.376C71.724 50.764 72.288 49.972 72.288 49.012ZM88.2833 47.74L84.6713 50.308H79.5593V45.64L82.3673 43.6H72.5273L75.3593 45.64V49.96L72.5273 52H88.2833V47.74ZM96.1138 52L93.7378 50.344L94.0978 49.756H98.4898L98.9098 50.296L96.2338 52H106.446L103.326 49.96L99.9898 45.304L102.066 43.6H92.2138L94.1698 45.292L91.0618 49.96L88.5178 52H96.1138ZM94.9498 48.364L96.1498 46.42L97.5058 48.364H94.9498ZM120.208 49.456C120.208 48.292 119.452 47.44 117.952 46.924C117.1 46.624 115.684 46.372 113.704 46.216C110.176 45.94 109.708 45.916 109.708 45.4C109.708 44.824 110.752 44.812 112.444 44.812C114.436 44.812 117.052 45.64 118.708 46.9V43.42L116.596 44.104C115.408 43.72 113.68 43.36 112.264 43.36C108.544 43.36 106.684 44.296 106.684 46.18C106.684 48.136 108.928 49.216 113.416 49.432C114.364 49.48 116.8 49.48 116.8 50.224C116.8 50.812 115.012 50.872 114.592 50.872C113.14 50.872 111.724 50.62 110.32 50.128C108.844 49.6 107.752 48.928 107.056 48.1V52.168L109.24 51.4C110.944 52.096 113.164 52.36 115.096 52.36C116.8 52.36 120.208 51.844 120.208 49.456ZM134.447 49.456C134.447 48.292 133.691 47.44 132.191 46.924C131.339 46.624 129.923 46.372 127.943 46.216C124.415 45.94 123.947 45.916 123.947 45.4C123.947 44.824 124.991 44.812 126.683 44.812C128.675 44.812 131.291 45.64 132.947 46.9V43.42L130.835 44.104C129.647 43.72 127.919 43.36 126.503 43.36C122.783 43.36 120.923 44.296 120.923 46.18C120.923 48.136 123.167 49.216 127.655 49.432C128.603 49.48 131.039 49.48 131.039 50.224C131.039 50.812 129.251 50.872 128.831 50.872C127.379 50.872 125.963 50.62 124.559 50.128C123.083 49.6 121.991 48.928 121.295 48.1V52.168L123.479 51.4C125.183 52.096 127.403 52.36 129.335 52.36C131.039 52.36 134.447 51.844 134.447 49.456ZM141.47 49.96V45.64L144.29 43.6H134.438L137.27 45.64V49.96L134.438 52H144.302L141.47 49.96ZM159.112 49.012C159.112 48.52 158.752 48.064 158.5 48.064C158.464 48.064 158.476 48.28 158.296 48.7C158.068 49.192 157.612 49.6 156.928 49.9C155.932 50.32 154.492 50.536 152.608 50.536C150.976 50.536 149.152 49.732 149.152 47.8C149.152 45.736 151.048 44.992 152.908 44.992C154.804 44.992 157.528 45.712 158.608 47.5V43.6L157.036 44.512C155.32 43.744 153.736 43.36 152.284 43.36C150.172 43.36 148.312 43.792 146.692 44.668C145.024 45.568 144.184 46.66 144.184 47.92C144.184 51.532 149.392 52.36 152.608 52.36C154.624 52.36 156.232 52.036 157.432 51.376C158.548 50.764 159.112 49.972 159.112 49.012Z" fill="white"/>
<defs>
<linearGradient id="paint0_linear_3902_3" x1="6.97561" y1="22.9286" x2="34.1346" y2="65.6665" gradientUnits="userSpaceOnUse">
<stop stop-color="#DD6C30"/>
<stop offset="0.6875" stop-color="#E4864F"/>
<stop offset="1" stop-color="#FBB773"/>
<stop offset="1" stop-color="#FBB773"/>
</linearGradient>
<linearGradient id="paint1_linear_3902_3" x1="6.97561" y1="22.9286" x2="34.1346" y2="65.6665" gradientUnits="userSpaceOnUse">
<stop stop-color="#DD6C30"/>
<stop offset="0.6875" stop-color="#E4864F"/>
<stop offset="1" stop-color="#FBB773"/>
<stop offset="1" stop-color="#FBB773"/>
</linearGradient>
<linearGradient id="paint2_linear_3902_3" x1="6.97561" y1="22.9286" x2="34.1346" y2="65.6665" gradientUnits="userSpaceOnUse">
<stop stop-color="#DD6C30"/>
<stop offset="0.6875" stop-color="#E4864F"/>
<stop offset="1" stop-color="#FBB773"/>
<stop offset="1" stop-color="#FBB773"/>
</linearGradient>
</defs>
</svg>
